<svg xmlns="http://www.w3.org/2000/svg" width="45" height="45" viewBox="0 0 45 45">
  <g id="placeholder" opacity="0.8">
    <g id="Group_59" data-name="Group 59" transform="translate(14.897 10.24)">
      <g id="Group_58" data-name="Group 58">
        <path id="Path_26" data-name="Path 26" d="M173.771,112c-4.761,0-7.6,2.976-7.6,7.96,0,2.836,3.769,9.389,7.6,14.621,3.81-5.249,7.6-11.721,7.6-14.621C181.374,114.976,178.532,112,173.771,112Zm-.008,11.37a3.339,3.339,0,1,1,3.339-3.339A3.339,3.339,0,0,1,173.763,123.37Z" transform="translate(-166.168 -112)" fill="#fbfbff"/>
      </g>
    </g>
    <g id="Group_61" data-name="Group 61">
      <g id="Group_60" data-name="Group 60">
        <path id="Path_27" data-name="Path 27" d="M22.5,0A22.5,22.5,0,1,0,45,22.5,22.5,22.5,0,0,0,22.5,0Zm1.318,36.239L22.5,37.969l-1.31-1.73c-.964-1.26-9.4-12.52-9.4-18.129,0-6.73,4.2-11.078,10.708-11.078S33.208,11.38,33.208,18.11C33.208,23.711,24.773,34.971,23.818,36.239Z" fill="#fbfbff"/>
      </g>
    </g>
  </g>
</svg>
