<svg xmlns="http://www.w3.org/2000/svg" width="45" height="45" viewBox="0 0 45 45">
  <g id="smartphone" transform="translate(-0.001)" opacity="0.8">
    <g id="Group_57" data-name="Group 57" transform="translate(0.001)">
      <g id="Group_56" data-name="Group 56" transform="translate(0)">
        <circle id="Ellipse_7" data-name="Ellipse 7" cx="1.758" cy="1.758" r="1.758" transform="translate(20.742 32.155)" fill="#fbfbff"/>
        <path id="Path_24" data-name="Path 24" d="M121.466,68.248h-9.807a.976.976,0,0,0-1,.95V87.736a.975.975,0,0,0,1,.95h9.807a.976.976,0,0,0,1-.95V69.2A.976.976,0,0,0,121.466,68.248Z" transform="translate(-94.063 -58.011)" fill="#fbfbff"/>
        <path id="Path_25" data-name="Path 25" d="M22.5,0A22.5,22.5,0,1,0,45,22.5,22.5,22.5,0,0,0,22.5,0Zm8.754,33.6a3.113,3.113,0,0,1-3.112,3.112H16.86A3.113,3.113,0,0,1,13.747,33.6V11.3A3.113,3.113,0,0,1,16.86,8.186H28.142A3.113,3.113,0,0,1,31.254,11.3Z" transform="translate(-0.001)" fill="#fbfbff"/>
      </g>
    </g>
  </g>
</svg>
